HIERARCHY
ROOT root
{
	OFFSET 0.000000 0.000000 0.000000
	CHANNELS 6 Xposition Yposition Zposition Zrotation Yrotation Xrotation
	JOINT lhip
	{
		OFFSET 0.058581 -0.082280 -0.017664
		CHANNELS 3 Zrotation Yrotation Xrotation
		JOINT lknee
		{
			OFFSET 0.043451 -0.386469 0.008037
			CHANNELS 3 Zrotation Yrotation Xrotation
			JOINT lankle
			{
				OFFSET -0.014790 -0.426874 -0.037428
				CHANNELS 3 Zrotation Yrotation Xrotation
				JOINT ltoe
				{
					OFFSET 0.041054 -0.060286 0.122042
					CHANNELS 3 Zrotation Yrotation Xrotation
					End Site
					{
						OFFSET 0.000000 0.000000 0.000000
					}
				}
			}
		}
	}
	JOINT rhip
	{
		OFFSET -0.060310 -0.090513 -0.013543
		CHANNELS 3 Zrotation Yrotation Xrotation
		JOINT rknee
		{
			OFFSET -0.043257 -0.383688 -0.004843
			CHANNELS 3 Zrotation Yrotation Xrotation
			JOINT rankle
			{
				OFFSET 0.019056 -0.420046 -0.034562
				CHANNELS 3 Zrotation Yrotation Xrotation
				JOINT rtoe
				{
					OFFSET -0.034840 -0.062106 0.130323
					CHANNELS 3 Zrotation Yrotation Xrotation
					End Site
					{
						OFFSET 0.000000 0.000000 0.000000
					}
				}
			}
		}
	}
	JOINT lowerback
	{
		OFFSET 0.004439 0.124404 -0.038385
		CHANNELS 3 Zrotation Yrotation Xrotation
		JOINT upperback
		{
			OFFSET 0.004488 0.137956 0.026820
			CHANNELS 3 Zrotation Yrotation Xrotation
			JOINT chest
			{
				OFFSET -0.002265 0.056032 0.002855
				CHANNELS 3 Zrotation Yrotation Xrotation
				JOINT lowerneck
				{
					OFFSET -0.013390 0.211636 -0.033468
					CHANNELS 3 Zrotation Yrotation Xrotation
					JOINT upperneck
					{
						OFFSET 0.010113 0.088937 0.050410
						CHANNELS 3 Zrotation Yrotation Xrotation
						End Site
						{
							OFFSET 0.000000 0.000000 0.000000
						}
					}
				}
				JOINT lclavicle
				{
					OFFSET 0.071702 0.114000 -0.018898
					CHANNELS 3 Zrotation Yrotation Xrotation
					JOINT lshoulder
					{
						OFFSET 0.122921 0.045205 -0.019046
						CHANNELS 3 Zrotation Yrotation Xrotation
						JOINT lelbow
						{
							OFFSET 0.255332 -0.015649 -0.022946
							CHANNELS 3 Zrotation Yrotation Xrotation
							JOINT lwrist
							{
								OFFSET 0.265709 0.012698 -0.007375
								CHANNELS 3 Zrotation Yrotation Xrotation
								End Site
								{
									OFFSET 0.000000 0.000000 0.000000
								}
							}
						}
					}
				}
				JOINT rclavicle
				{
					OFFSET -0.082954 0.112472 -0.023707
					CHANNELS 3 Zrotation Yrotation Xrotation
					JOINT rshoulder
					{
						OFFSET -0.113228 0.046853 -0.008472
						CHANNELS 3 Zrotation Yrotation Xrotation
						JOINT relbow
						{
							OFFSET -0.260127 -0.014369 -0.031269
							CHANNELS 3 Zrotation Yrotation Xrotation
							JOINT rwrist
							{
								OFFSET -0.269108 0.006794 -0.006027
								CHANNELS 3 Zrotation Yrotation Xrotation
								End Site
								{
									OFFSET 0.000000 0.000000 0.000000
								}
							}
						}
					}
				}
			}
		}
	}
}
MOTION
Frames: 13
Frame Time: 0.033333
0.185795 0.108417 0.983592 77.621262 0.762556 89.322433 12.675681 4.975608 4.683201 -1.630583 -1.788660 3.325369 -0.411205 12.005693 -10.856375 0.000000 -0.000000 0.000000 -5.742420 1.409948 -10.280537 -0.938738 13.438874 18.705800 3.089533 -8.861035 -11.748929 0.000000 -0.000000 0.000000 3.359964 -1.403076 7.629845 -5.499493 1.868738 1.500194 -3.379449 0.320107 -1.236977 10.035484 -21.940284 -12.441907 7.366712 -8.084163 3.104422 -26.759976 -8.470991 3.674054 -40.023778 -1.880398 3.461593 4.060392 -34.571957 15.522254 19.708255 -15.662506 11.167213 1.870805 21.740114 -2.003759 8.275879 25.311886 5.476156 83.542966 68.469528 119.771040 -20.961111 33.189414 25.131007 
0.186932 0.102033 0.982877 77.644235 0.734109 89.227406 12.842221 5.035712 4.755117 -1.302239 -1.962651 3.707546 -0.636513 12.077507 -11.017588 0.000000 -0.000000 0.000000 -5.245514 1.985054 -10.901718 -0.687992 13.584043 20.549268 2.791322 -9.373296 -12.676998 0.000000 -0.000000 0.000000 3.041051 -1.766869 7.823924 -5.334766 1.520559 1.322339 -3.377672 -0.130313 -1.079485 10.299053 -21.544449 -12.692549 6.971448 -8.167252 2.734950 -26.778741 -8.040015 3.852601 -39.864681 -1.248339 2.956544 3.925403 -32.809056 15.595619 19.577794 -15.284017 10.611310 1.557980 21.012288 -2.941945 7.579530 26.012639 4.418857 86.883706 70.542667 122.530158 -23.281545 33.272094 22.412180 
0.188609 0.094531 0.981882 78.031130 0.649212 89.097670 13.115172 5.359544 4.559254 -1.115120 -2.419926 4.486832 -1.035122 12.017503 -11.253954 0.000000 -0.000000 0.000000 -4.845611 2.432338 -11.250432 -0.348142 13.526955 22.165035 2.351309 -9.991110 -13.579950 0.000000 -0.000000 0.000000 2.952154 -2.431595 7.583906 -5.275164 0.969311 1.501674 -3.579380 -0.576180 -0.875387 10.288837 -21.498439 -12.086858 6.892120 -8.017494 1.500814 -26.752878 -7.927833 3.876374 -39.726887 -0.269413 2.768695 3.913302 -30.533504 15.279969 19.582802 -14.633484 9.743748 0.658221 20.605183 -4.268452 5.472762 26.936902 2.172059 89.991873 73.324453 124.581115 -25.886287 33.151372 19.755810 
0.190852 0.085717 0.981310 78.323186 0.528126 88.800183 13.383615 5.524634 4.676113 -0.906352 -2.648125 5.250819 -1.357670 12.037092 -11.363942 0.000000 -0.000000 0.000000 -4.400629 2.685617 -11.185610 -0.004995 13.591979 23.358566 1.876218 -10.504687 -14.333260 0.000000 -0.000000 0.000000 3.097807 -3.031251 7.507277 -5.456503 0.382366 1.475527 -4.016271 -0.959731 -0.771372 10.457147 -21.794898 -11.904856 6.561218 -7.933363 1.252982 -26.721317 -7.741122 3.918690 -39.474647 0.685706 2.105393 4.017119 -28.103978 15.155698 18.244341 -13.890051 9.021333 -0.837062 20.315450 -5.770010 3.200036 27.670833 -0.506552 91.926165 76.861670 126.181811 -25.967487 32.704173 20.045130 
0.193318 0.076096 0.981494 78.574305 0.423590 88.616449 13.729296 5.654306 4.669077 -0.796453 -3.004880 5.972594 -1.871992 12.191120 -11.086424 0.000000 -0.000000 0.000000 -3.895940 2.697451 -10.932577 0.286111 13.891492 24.001393 1.565515 -10.963489 -14.834861 0.000000 -0.000000 0.000000 3.533606 -3.414268 7.188939 -5.883024 -0.039454 1.338968 -4.516970 -1.301957 -0.581854 10.511027 -22.402799 -11.302755 6.494402 -7.859641 0.607561 -26.710510 -7.929829 3.864812 -39.185294 1.658897 1.743877 4.140995 -25.325525 15.047382 17.398847 -12.777898 8.567320 -2.642997 20.050571 -7.282955 -0.269856 28.363466 -4.234541 85.115989 79.975002 118.667839 -27.698070 31.637324 20.755375 
0.196219 0.066497 0.982726 78.703098 0.228495 88.376693 14.117269 5.969149 4.724729 -0.827719 -3.216130 6.766784 -2.282983 12.105126 -10.426004 0.000000 -0.000000 0.000000 -3.540143 2.570843 -10.307356 0.573122 14.299413 23.986717 1.323569 -11.389785 -15.089674 0.000000 -0.000000 0.000000 4.042037 -3.759904 7.036070 -6.573837 -0.022560 1.096747 -4.991552 -1.594968 -0.788007 10.727973 -23.783029 -11.467233 6.009656 -7.532152 1.840824 -27.068985 -7.845101 4.016048 -38.625472 2.091767 0.857483 4.520860 -22.320321 14.354396 17.440457 -13.053724 9.374221 -4.407803 20.034850 -8.248230 -4.509451 28.111719 -8.287104 65.979764 82.142540 98.051210 -28.402996 32.422640 20.013034 
0.198797 0.056613 0.985206 78.623270 -0.122254 88.246924 14.421547 6.068019 4.644625 -0.996058 -3.452504 7.638645 -2.931968 12.172548 -9.256052 0.000000 -0.000000 0.000000 -3.310551 2.274224 -9.603772 0.666644 14.672578 23.483606 1.053412 -11.466881 -14.995781 0.000000 -0.000000 0.000000 4.399741 -3.842000 6.637959 -7.371289 0.069136 1.066525 -5.447993 -1.659712 -0.893493 10.799084 -25.366256 -11.021618 6.315112 -7.347059 1.502590 -27.169026 -7.938462 3.830227 -38.366833 2.600698 0.486265 5.148166 -20.036781 13.116148 16.527983 -12.406232 9.397241 -6.513110 20.176365 -9.289871 -8.125982 27.239507 -11.960356 30.903196 82.019270 61.098825 -27.596619 32.385666 20.397873 
0.201517 0.046678 0.988479 78.351881 -0.556966 88.187176 14.699565 5.913483 4.503902 -1.242314 -3.603245 8.711116 -3.761617 12.054239 -8.148942 0.000000 -0.000000 0.000000 -3.152579 2.063744 -8.686205 0.636721 15.182604 22.449302 0.796822 -11.547931 -14.757426 0.000000 -0.000000 0.000000 4.736156 -3.733884 6.086640 -8.260556 0.331639 1.066751 -5.908217 -1.745538 -1.010596 10.703403 -26.686272 -10.336326 6.564789 -7.089352 1.216136 -27.281658 -7.749112 3.838680 -38.123926 2.773329 -0.057401 6.191494 -18.594098 11.266646 16.635877 -13.060038 9.617358 -8.722659 20.090106 -10.194671 -11.265267 26.564598 -15.276577 6.603156 78.046051 35.390944 -27.658481 31.403393 19.184933 
0.204239 0.036831 0.991990 78.115423 -0.958335 88.126638 14.983764 5.447655 4.356360 -1.529787 -4.053393 9.783330 -4.522639 12.149996 -6.988078 0.000000 -0.000000 0.000000 -3.077779 1.768490 -7.593896 0.556672 15.518876 21.051625 0.652090 -11.470717 -14.357090 0.000000 -0.000000 0.000000 4.953980 -3.668456 5.666788 -9.017261 0.607661 1.052144 -6.210310 -1.772288 -1.023132 10.863504 -27.612621 -10.374366 6.475572 -6.800391 1.011653 -27.114394 -7.119112 3.629839 -38.230556 2.799764 -0.110684 7.009626 -18.377074 9.756416 15.880394 -12.870543 8.584033 -10.076201 19.864394 -11.002492 -14.627606 26.375258 -19.142069 -3.421104 71.841501 22.610287 -26.496427 30.050794 18.412349 
0.206792 0.027489 0.994960 77.947965 -1.187015 88.175019 15.453223 4.960940 4.219695 -1.774550 -4.431283 10.552874 -5.635277 12.103441 -5.623344 0.000000 -0.000000 0.000000 -2.893037 1.481186 -6.691927 0.525240 15.594118 19.766003 0.284724 -11.232945 -13.948627 0.000000 -0.000000 0.000000 5.305441 -3.524618 5.222929 -9.652734 0.930255 1.273121 -6.434041 -1.725433 -1.405845 10.582953 -28.362738 -9.865960 6.556288 -6.783116 0.195962 -27.093027 -6.670260 3.827426 -38.413151 2.943141 0.000098 8.130656 -19.665445 7.767055 14.319595 -11.153476 6.582071 -11.560262 20.308049 -11.276373 -16.874616 25.513489 -22.253983 -10.784681 64.459213 12.193983 -26.607164 28.519636 15.107055 
0.208577 0.019164 0.997191 77.897627 -1.508574 88.249771 15.730160 4.643699 3.840385 -1.987112 -5.064023 11.440188 -6.316682 12.131519 -4.494916 0.000000 -0.000000 0.000000 -2.840934 1.233054 -5.898820 0.473294 15.787384 18.569089 0.085244 -11.221094 -13.533293 0.000000 -0.000000 0.000000 5.484070 -3.443543 5.071784 -10.169555 1.262944 1.148919 -6.659844 -1.599216 -1.574657 10.429027 -28.763019 -10.001836 6.208413 -6.749236 -0.171925 -26.967867 -6.225548 4.006044 -38.634524 2.949114 0.700463 8.513676 -20.528120 8.224052 15.217167 -11.342490 3.888146 -12.447617 20.580890 -11.434887 -19.184025 25.183524 -25.921281 -14.413066 56.228411 5.205023 -28.204450 27.015445 11.809059 
0.210603 0.011166 0.998728 77.805007 -1.771369 88.331105 16.026440 4.633659 3.567445 -2.102388 -5.582280 12.086485 -6.999209 11.904135 -3.538056 0.000000 -0.000000 0.000000 -2.666371 0.961704 -5.355830 0.329795 15.890651 17.807461 -0.050620 -11.047209 -13.337483 0.000000 -0.000000 0.000000 5.617660 -3.226138 4.809391 -10.527324 1.693084 1.279407 -6.824371 -1.447934 -1.850177 10.069831 -28.728031 -10.250961 5.608053 -6.934245 -0.594434 -26.842586 -5.982061 4.035655 -38.797719 2.768287 1.293903 9.069338 -21.946340 8.594608 15.448937 -11.375133 3.941965 -12.959931 21.017981 -11.799960 -20.863391 25.258314 -29.622364 -17.340843 48.210485 -1.639090 -28.725445 25.061574 9.090528 
0.211548 0.004061 0.999890 77.925332 -2.117450 88.531800 16.129058 4.407812 2.976624 -2.126127 -5.850911 12.862746 -7.644937 11.512395 -2.605887 0.000000 -0.000000 0.000000 -2.641907 0.774598 -5.181213 0.264216 15.755471 17.428367 -0.198304 -10.811275 -13.276976 0.000000 -0.000000 0.000000 5.621223 -2.966409 4.623550 -10.796142 1.968438 1.333855 -7.100133 -1.363148 -2.068557 9.688568 -28.194394 -10.422657 4.799821 -7.410543 -1.013468 -26.592281 -5.828827 3.943344 -38.881776 2.453390 1.918129 9.436048 -23.325220 9.047377 15.179683 -11.302338 3.601796 -13.056516 21.403428 -12.012806 -21.983043 25.752739 -33.313526 -20.491274 41.047575 -9.567136 -30.131190 23.473243 6.362800 
